<svg width="169" height="44" fill="none" xmlns="http://www.w3.org/2000/svg">
  <path d="M7.14 15.64v1.391H5.368v-1.39h-.219c-1.302 0-2.377-.43-3.226-1.29-.85-.864-1.274-1.927-1.274-3.187 0-1.208.414-2.224 1.243-3.047.828-.828 1.888-1.242 3.18-1.242h.296V5.523h1.774v1.352h.234c1.323 0 2.398.406 3.227 1.219.833.812 1.25 1.836 1.25 3.07 0 1.245-.425 2.302-1.274 3.172-.849.87-1.924 1.305-3.226 1.305H7.14Zm0-7.312v5.82h.18c.792 0 1.425-.268 1.899-.804.474-.537.71-1.253.71-2.149 0-.86-.236-1.552-.71-2.078-.474-.526-1.112-.789-1.914-.789H7.14Zm-1.773 5.82v-5.82h-.172c-.786 0-1.422.268-1.906.805-.48.531-.719 1.219-.719 2.062 0 .901.237 1.62.711 2.157.48.53 1.112.796 1.899.796h.187ZM20.113 17h-6.29V5.797h6.04v1.578h-4.18v3.172h3.851v1.57h-3.851v3.313h4.43V17Zm12.237 3.023h-1.664V17h-7.61v3.023h-1.655v-4.601h.945c.703-1.318 1.3-2.854 1.789-4.61.49-1.76.765-3.432.828-5.015h5.82v9.625h1.547v4.601Zm-3.406-4.601V7.398h-2.422c-.073 1.167-.325 2.534-.758 4.102-.432 1.568-.914 2.875-1.445 3.922h4.625ZM40.588 17h-6.29V5.797h6.04v1.578h-4.18v3.172h3.852v1.57h-3.852v3.313h4.43V17Zm3.847-4.063V17h-1.852V5.797h3.398c1.287 0 2.284.3 2.993.898.708.6 1.062 1.443 1.062 2.532 0 1.088-.37 1.979-1.11 2.671-.739.693-1.739 1.04-3 1.04h-1.491Zm0-5.609v4.094h1.203c.797 0 1.403-.185 1.82-.555.417-.37.625-.89.625-1.562 0-1.318-.765-1.977-2.297-1.977h-1.351ZM60.008 17H57.97l-1.008-2.852h-4.406L51.586 17h-2.03L53.75 5.797h2.094L60.008 17Zm-3.539-4.367-1.555-4.469a5.31 5.31 0 0 1-.148-.703h-.031a4.564 4.564 0 0 1-.157.703l-1.539 4.469h3.43Zm15.628 7.398h-1.664V17h-8.875V5.797h1.86v9.578h5.273V5.797h1.867v9.578h1.54v4.656ZM83.515 17h-1.79V9.54c0-.673.027-1.147.079-1.423h-.047a3.29 3.29 0 0 1-.328.649L76.054 17h-2.04V5.797h1.797v7.125c0 .818-.02 1.351-.062 1.601h.031c.104-.208.24-.437.406-.687l5.188-8.04h2.14V17Zm9.815 0h-1.86v-4.578h-1.202c-.308 0-.578.086-.813.258-.229.172-.476.554-.742 1.148L87.385 17h-2.172l1.649-3.563c.13-.275.328-.565.593-.867.271-.307.584-.526.938-.656v-.031c-.771-.162-1.373-.5-1.805-1.016-.427-.52-.64-1.15-.64-1.89 0-.959.356-1.727 1.07-2.305.713-.583 1.65-.875 2.812-.875h3.5V17Zm-1.86-6.078V7.32h-1.554c-.635 0-1.127.154-1.476.461-.35.308-.524.742-.524 1.305 0 .568.185 1.016.555 1.344.375.328.877.492 1.508.492h1.492Z" fill="#E8E0C9"/>
  <path d="M113.376 17h-12.852V5.797h1.86v9.578h3.64V5.797h1.852v9.578h3.64V5.797h1.86V17Zm11.995 0h-2.039l-1.008-2.852h-4.406L116.949 17h-2.031l4.195-11.203h2.094L125.371 17Zm-3.539-4.367-1.555-4.469a5.443 5.443 0 0 1-.148-.703h-.031a4.492 4.492 0 0 1-.157.703l-1.539 4.469h3.43ZM135.296 17h-2.226l-2.297-4.11a4.177 4.177 0 0 1-.227-.53h-.031c-.047.114-.125.291-.234.53L127.913 17h-2.242l3.672-5.633-3.375-5.57h2.274l2.023 3.781c.13.25.247.5.352.75h.023c.151-.328.281-.588.391-.781l2.101-3.75h2.094l-3.453 5.555L135.296 17Zm13.566 0h-1.844V9.75c0-.594.037-1.32.11-2.18h-.032c-.114.49-.216.841-.304 1.055L143.448 17h-1.281l-3.352-8.313c-.094-.244-.193-.617-.297-1.117h-.031c.042.448.062 1.18.062 2.196V17h-1.718V5.797h2.617l2.945 7.46c.224.574.37 1 .438 1.282h.039a19.23 19.23 0 0 1 .468-1.312l3-7.43h2.524V17Zm11.972 0h-2.039l-1.008-2.852h-4.406L152.412 17h-2.031l4.195-11.203h2.094L160.834 17Zm-3.539-4.367-1.555-4.469a5.275 5.275 0 0 1-.148-.703h-.032a4.509 4.509 0 0 1-.156.703l-1.539 4.469h3.43Zm11.23-5.258h-3.219V17h-1.86V7.375h-3.21V5.797h8.289v1.578Z" fill="#AC7A30"/>
  <path d="M8.57 29.375H5.352V39h-1.86v-9.625H.282v-1.578H8.57v1.578ZM18.323 39h-2.038l-1.008-2.852H10.87L9.902 39H7.87l4.196-11.203h2.093L18.323 39Zm-3.539-4.367-1.554-4.469a5.29 5.29 0 0 1-.149-.703h-.03a4.576 4.576 0 0 1-.157.703l-1.54 4.469h3.43Zm15.52 7.39h-1.665V39h-7.61v3.023h-1.655v-4.601h.945c.703-1.318 1.3-2.854 1.789-4.61.49-1.76.766-3.432.828-5.015h5.82v9.625h1.547v4.601Zm-3.407-4.601v-8.024h-2.422c-.073 1.167-.325 2.534-.758 4.102-.432 1.568-.914 2.875-1.445 3.922h4.625ZM45.76 39h-2.383l-3.938-5.07a3.315 3.315 0 0 1-.258-.39h-.03V39h-1.798v-5.46h-.03a2.4 2.4 0 0 1-.259.39L33.127 39h-2.39l4.75-5.828-4.415-5.375h2.242l3.711 4.781c.12.151.219.297.297.438h.031v-5.22h1.797v5.22h.032c.067-.13.166-.276.296-.438l3.711-4.781h2.235l-4.407 5.375L45.76 39Zm10.776 0h-1.789v-7.46c0-.673.026-1.147.078-1.423h-.047c-.088.235-.197.45-.328.649L49.075 39h-2.039V27.797h1.797v7.125c0 .818-.02 1.351-.062 1.601h.03c.105-.208.24-.437.407-.687l5.188-8.04h2.14V39Zm11.261 0h-2.422l-3.898-5.125a2.837 2.837 0 0 1-.266-.39h-.03V39h-1.86V27.797h1.86v5.265h.03c.063-.114.151-.242.266-.382l3.758-4.883h2.226l-4.398 5.375L67.797 39Zm10.808 0h-1.789v-7.46c0-.673.026-1.147.078-1.423h-.047c-.088.235-.198.45-.328.649L71.144 39h-2.039V27.797h1.797v7.125c0 .818-.02 1.351-.063 1.601h.032c.104-.208.24-.437.406-.687l5.188-8.04h2.14V39Zm10.597-.469c-.844.438-1.893.657-3.148.657-1.625 0-2.927-.514-3.907-1.54-.979-1.026-1.468-2.372-1.468-4.039 0-1.791.55-3.24 1.648-4.343 1.104-1.104 2.498-1.657 4.18-1.657 1.083 0 1.981.154 2.695.461v1.844a4.809 4.809 0 0 0-2.5-.672c-1.213 0-2.198.388-2.953 1.164-.75.776-1.125 1.813-1.125 3.11 0 1.234.352 2.218 1.055 2.953.703.729 1.627 1.093 2.773 1.093 1.057 0 1.974-.25 2.75-.75v1.72Zm9.316-9.156h-3.219V39h-1.86v-9.625h-3.21v-1.578h8.289v1.578ZM108.27 39h-2.039l-1.008-2.852h-4.406L99.849 39h-2.031l4.195-11.203h2.094L108.271 39Zm-3.539-4.367-1.555-4.469a5.276 5.276 0 0 1-.148-.703h-.031a4.494 4.494 0 0 1-.157.703l-1.539 4.469h3.43ZM118.821 39h-1.867v-4.86h-5.274V39h-1.859V27.797h1.859v4.71h5.274v-4.71h1.867V39Zm11.972 0h-2.039l-1.008-2.852h-4.406L122.371 39h-2.031l4.195-11.203h2.094L130.793 39Zm-3.539-4.367-1.555-4.469a5.276 5.276 0 0 1-.148-.703h-.031a4.494 4.494 0 0 1-.157.703l-1.539 4.469h3.43Z" fill="#E8E0C9"/>
</svg>
